<svg width="65" height="57" viewBox="0 0 65 57" fill="none" xmlns="http://www.w3.org/2000/svg">
<path d="M2.06598 43.3611C2.28912 43.121 2.53001 42.8982 2.78675 42.6945L28.075 20.9615L25.4746 18.1852C25.1748 18.2284 24.8728 18.2535 24.5701 18.2606C23.2626 18.3235 21.9894 17.8306 21.0651 16.9038C19.8089 15.5345 19.5576 13.4114 20.4496 10.9241C21.4106 8.44126 22.9327 6.21409 24.8967 4.41672C29.5322 0.057545 35.11 -1.28664 37.5722 1.33892C38.6113 2.58401 38.9855 4.25419 38.5772 5.82371L50.6874 18.7002C52.2778 18.3807 53.9246 18.8485 55.1094 19.9565C57.6219 22.582 55.8757 28.0593 51.2276 32.4184C48.1875 35.2701 44.7454 36.8279 42.0444 36.8279C40.7431 36.8905 39.4756 36.4026 38.5521 35.4837C37.513 34.2386 37.1388 32.5684 37.5471 30.9989L34.9467 28.2603L11.5805 52.2043C9.13849 54.8318 5.02899 54.9819 2.40155 52.5399C-0.225884 50.0979 -0.376005 45.9886 2.06598 43.3611ZM35.7883 3.06013C34.5321 1.70338 30.3488 2.78376 26.6554 6.25099C24.9678 7.76493 23.6524 9.64788 22.8113 11.7534C22.2586 13.286 22.2963 14.5297 22.8867 15.1578C23.7912 15.8003 24.9609 15.9376 25.9896 15.5221L35.9391 6.18818C36.427 5.18821 36.3701 4.00844 35.7883 3.06013ZM40.3862 33.813C41.6424 35.1698 45.8257 34.0894 49.5191 30.6222C53.2125 27.1549 54.5441 23.0847 53.2878 21.7154C52.3833 21.0728 51.2136 20.9356 50.1849 21.3511L40.2229 30.685C39.7364 31.6865 39.7981 32.8676 40.3862 33.813ZM36.7054 26.4766L38.7154 28.6373L48.2252 19.7054L37.4591 8.23586L27.9494 17.1929L33.3387 22.9465L36.7054 26.4766ZM4.23144 50.1819C5.72276 51.7704 8.21358 51.8656 9.82173 50.3955L33.213 26.4389L29.7835 22.7832L4.40731 44.5539C2.80497 46.0597 2.7263 48.5791 4.23144 50.1819Z" fill="#BB9E54"/>
<path d="M39.7549 47.6295C39.7643 47.6303 39.7737 47.6309 39.7831 47.6317H39.846V47.2046C39.9204 45.8212 41.1005 44.759 42.4841 44.8303H58.9283C60.3024 44.7733 61.4669 45.8314 61.5413 47.2046V47.6317H61.6041C62.9314 47.5171 64.1001 48.4999 64.2149 49.827C64.2157 49.8364 64.2165 49.8459 64.2171 49.8553V54.7546C64.125 56.0836 62.9728 57.0861 61.6439 56.9939C61.6305 56.993 61.6173 56.992 61.6041 56.9908H39.7831C38.4559 57.1049 37.2875 56.1216 37.1733 54.7944C37.1722 54.7812 37.1711 54.7678 37.1702 54.7546V49.8553C37.2692 48.527 38.4266 47.5304 39.7549 47.6295ZM39.6826 54.4784H61.7046V50.1444H60.2851C59.5913 50.1444 59.0288 49.5819 59.0288 48.8881V47.3429H42.3585V48.8756C42.3585 49.5693 41.796 50.1318 41.1022 50.1318H39.6826V54.4784V54.4784Z" fill="#BB9E54"/>
</svg>
