<svg width="53" height="50" viewBox="0 0 53 50" fill="none" xmlns="http://www.w3.org/2000/svg">
<path d="M45.9046 -0.000244141H14.4185C10.5025 0.00552831 7.32938 3.17867 7.32361 7.09463V35.8519C3.42839 36.2773 0.615496 39.7798 1.04082 43.6751C1.43492 47.2844 4.49039 50.0137 8.12126 49.9997H33.7719C37.6879 49.9939 40.861 46.8208 40.8668 42.9048V14.1895H45.9046C49.823 14.1895 52.9995 11.0131 52.9995 7.09463C52.9995 3.17618 49.8229 -0.000244141 45.9046 -0.000244141ZM28.7447 47.9006H8.12126C5.35927 47.9006 3.12022 45.6616 3.12022 42.8996C3.12022 40.1376 5.35927 37.8985 8.12126 37.8985H28.7447C25.9891 40.6631 25.9891 45.1359 28.7447 47.9006ZM38.7782 7.09423V42.9048C38.7782 45.6639 36.5415 47.9006 33.7824 47.9006C31.0233 47.9006 28.7866 45.6639 28.7866 42.9048C28.7866 40.1457 31.0233 37.909 33.7824 37.909C34.362 37.909 34.832 37.4391 34.832 36.8595C34.832 36.2799 34.362 35.81 33.7824 35.81H9.46467V7.09463C9.47031 4.35415 11.6781 2.12756 14.4185 2.09883H40.8353C39.5157 3.42623 38.776 5.22251 38.7782 7.09423ZM44.8551 12.0904H40.8773V10.3692H44.8551V12.0904ZM46.9541 11.9855V11.975V9.31965C46.9541 8.74004 46.4842 8.27011 45.9046 8.27011H40.8773V7.09463C40.8847 4.33552 43.1274 2.10486 45.8865 2.11221C48.6456 2.11956 50.8763 4.36229 50.8689 7.12139C50.8626 9.45897 49.2362 11.4796 46.9541 11.9855Z" fill="#BB9E54"/>
<path d="M31.6204 10.4114H16.2656C15.686 10.4114 15.2161 10.8813 15.2161 11.4609C15.2161 12.0405 15.686 12.5105 16.2656 12.5105H31.6204C32.2 12.5105 32.6699 12.0405 32.6699 11.4609C32.6699 10.8813 32.2 10.4114 31.6204 10.4114Z" fill="#BB9E54"/>
<path d="M31.6204 17.9048H16.2656C15.686 17.9048 15.2161 18.3747 15.2161 18.9543C15.2161 19.5339 15.686 20.0039 16.2656 20.0039H31.6204C32.2 20.0039 32.6699 19.5339 32.6699 18.9543C32.6699 18.3747 32.2 17.9048 31.6204 17.9048Z" fill="#BB9E54"/>
<path d="M31.6204 25.3987H16.2656C15.686 25.3987 15.2161 25.8686 15.2161 26.4482C15.2161 27.0278 15.686 27.4978 16.2656 27.4978H31.6204C32.2 27.4978 32.6699 27.0278 32.6699 26.4482C32.6699 25.8686 32.2 25.3987 31.6204 25.3987Z" fill="#BB9E54"/>
</svg>
