<svg width="42" height="61" viewBox="0 0 42 61" fill="none" xmlns="http://www.w3.org/2000/svg">
<path d="M39.2249 0.274414H2.49999C1.11922 0.274414 0 1.39363 0 2.77441V51.0993C0 52.4801 1.11922 53.5993 2.49999 53.5993H6.38748V59.0243C6.38748 59.7146 6.94701 60.2743 7.63732 60.2744C8.00279 60.2744 8.34998 60.1146 8.58748 59.8368L11.3375 56.6368L14.0875 59.8368C14.5362 60.3614 15.3253 60.423 15.8498 59.9744C16.1275 59.7369 16.2875 59.3897 16.2875 59.0243V53.5993H39.2249C40.6057 53.5993 41.7249 52.4801 41.7249 51.0993V2.77441C41.7249 1.39363 40.6057 0.274414 39.2249 0.274414ZM12.2875 53.8618C11.8387 53.3371 11.0497 53.2755 10.5251 53.7241C10.4758 53.7663 10.4298 53.8124 10.3875 53.8618L8.88748 55.6118V50.8618C10.4667 51.4566 12.2083 51.4566 13.7875 50.8618V55.6118L12.2875 53.8618ZM15.875 44.2118C15.8751 46.726 13.8515 48.7719 11.3375 48.7993H11.2875C8.75388 48.7993 6.69998 46.7454 6.69998 44.2118C6.69998 41.6782 8.75388 39.6243 11.2875 39.6243C13.8211 39.6243 15.875 41.6782 15.875 44.2118ZM39.1624 51.0868H16.2875V49.2743C19.0889 46.5405 19.1437 42.0532 16.41 39.2518C13.6762 36.4504 9.18888 36.3956 6.38748 39.1293C3.58608 41.8631 3.53124 46.3504 6.26498 49.1518C6.3053 49.1932 6.34608 49.234 6.38748 49.2743V51.0868H2.49999V2.77441H39.2249L39.1624 51.0868Z" fill="#BB9E54"/>
<path d="M31.7249 10.1616H9.99997C9.30966 10.1616 8.74997 10.7213 8.74997 11.4116C8.74997 12.1019 9.30966 12.6616 9.99997 12.6616H31.7249C32.4152 12.6616 32.9749 12.1019 32.9749 11.4116C32.9749 10.7213 32.4154 10.1616 31.7249 10.1616Z" fill="#BB9E54"/>
<path d="M31.7249 17.3496H9.99997C9.30966 17.3496 8.74997 17.9093 8.74997 18.5996C8.74997 19.2899 9.30966 19.8496 9.99997 19.8496H31.7249C32.4152 19.8496 32.9749 19.2899 32.9749 18.5996C32.9749 17.9093 32.4154 17.3496 31.7249 17.3496Z" fill="#BB9E54"/>
<path d="M31.7249 24.5369H9.99997C9.30966 24.5369 8.74997 25.0966 8.74997 25.7869C8.74997 26.4772 9.30966 27.0369 9.99997 27.0369H31.7249C32.4152 27.0369 32.9749 26.4772 32.9749 25.7869C32.9749 25.0966 32.4154 24.5369 31.7249 24.5369Z" fill="#BB9E54"/>
<path d="M31.7249 31.7244H9.99997C9.30966 31.7244 8.74997 32.2841 8.74997 32.9744C8.74997 33.6647 9.30966 34.2244 9.99997 34.2244H31.7249C32.4152 34.2244 32.9749 33.6647 32.9749 32.9744C32.9749 32.2841 32.4154 31.7244 31.7249 31.7244Z" fill="#BB9E54"/>
<path d="M31.7249 38.9121H21.8C21.1096 38.9121 20.55 39.4718 20.55 40.1621C20.55 40.8524 21.1096 41.4121 21.8 41.4121H31.7249C32.4152 41.4121 32.9749 40.8524 32.9749 40.1621C32.9749 39.4718 32.4154 38.9121 31.7249 38.9121Z" fill="#BB9E54"/>
</svg>
