<svg width="28" height="28" viewBox="0 0 28 28" fill="none" xmlns="http://www.w3.org/2000/svg">
<g clip-path="url(#clip0_1443_789)">
<path d="M3.5 3.49059C3.5 2.85125 4.01917 2.33325 4.6585 2.33325H23.3415C23.6479 2.33539 23.9411 2.45797 24.1579 2.67452C24.3747 2.89107 24.4976 3.1842 24.5 3.49059V24.5093C24.4997 24.8163 24.3775 25.1107 24.1603 25.3277C23.943 25.5447 23.6486 25.6666 23.3415 25.6666H4.6585C4.35211 25.6644 4.05885 25.5419 3.84209 25.3253C3.62532 25.1088 3.50244 24.8156 3.5 24.5093V3.49059ZM22.1667 12.8333V4.66659H5.83333V12.8333H22.1667ZM22.1667 15.1666H5.83333V23.3333H22.1667V15.1666ZM10.5 6.99992H17.5V9.33325H10.5V6.99992ZM10.5 17.4999H17.5V19.8333H10.5V17.4999Z" fill="#BB9E54"/>
</g>
<defs>
<clipPath id="clip0_1443_789">
<rect width="28" height="28" fill="white"/>
</clipPath>
</defs>
</svg>
